<svg width="444" height="263" viewBox="0 0 444 263" fill="none" xmlns="http://www.w3.org/2000/svg">
<path d="M443.127 220.251C443.836 221.708 442.779 223.406 441.164 223.406H426.479C425.637 223.406 424.87 222.921 424.507 222.158L418.42 209.36C418.058 208.597 417.291 208.112 416.449 208.112H382.834C381.992 208.112 381.225 208.597 380.863 209.36L374.776 222.158C374.413 222.921 373.646 223.406 372.804 223.406H358.119C356.504 223.406 355.447 221.708 356.156 220.251L387.64 155.564C388.006 154.811 388.768 154.334 389.603 154.334H409.68C410.515 154.334 411.277 154.811 411.643 155.564L443.127 220.251ZM399.641 170.813C399.401 170.813 399.182 170.951 399.078 171.168L387.873 194.609C387.177 196.065 388.234 197.751 389.842 197.751H409.441C411.049 197.751 412.106 196.065 411.41 194.609L400.205 171.168C400.101 170.951 399.882 170.813 399.641 170.813V170.813Z" fill="#3F6CA3"/>
<path d="M329.681 162.019C336.589 162.019 342.478 163.168 347.346 165.465C352.281 167.696 355.998 170.847 358.498 174.916C360.998 178.919 362.248 183.48 362.248 188.6C362.248 193.719 360.998 198.313 358.498 202.382C355.998 206.385 352.281 209.536 347.346 211.833C342.478 214.064 336.589 215.18 329.681 215.18H318.551C317.34 215.18 316.358 216.159 316.358 217.368V222.837C316.358 224.045 315.376 225.025 314.165 225.025H300.787C299.576 225.025 298.594 224.045 298.594 222.837V217.368C298.594 216.159 297.612 215.18 296.401 215.18H285.271C278.363 215.18 272.442 214.064 267.507 211.833C262.639 209.536 258.954 206.385 256.454 202.382C253.954 198.313 252.704 193.719 252.704 188.6C252.704 183.48 253.954 178.919 256.454 174.916C258.954 170.847 262.639 167.696 267.507 165.465C272.442 163.168 278.363 162.019 285.271 162.019H296.401C297.612 162.019 298.594 161.04 298.594 159.832V154.362C298.594 153.154 299.576 152.175 300.787 152.175H314.165C315.376 152.175 316.358 153.154 316.358 154.362V159.832C316.358 161.04 317.34 162.019 318.551 162.019H329.681ZM296.401 200.905C297.612 200.905 298.594 199.926 298.594 198.718V178.482C298.594 177.273 297.612 176.294 296.401 176.294H285.765C281.225 176.294 277.705 177.41 275.205 179.641C272.705 181.873 271.455 184.859 271.455 188.6C271.455 192.341 272.705 195.327 275.205 197.558C277.705 199.79 281.225 200.905 285.765 200.905H296.401ZM329.188 200.905C333.727 200.905 337.247 199.79 339.747 197.558C342.248 195.327 343.498 192.341 343.498 188.6C343.498 184.859 342.248 181.873 339.747 179.641C337.247 177.41 333.727 176.294 329.188 176.294H318.551C317.34 176.294 316.358 177.273 316.358 178.482V198.718C316.358 199.926 317.34 200.905 318.551 200.905H329.188Z" fill="#3F6CA3"/>
<path d="M178.107 223.406C176.898 223.406 175.918 222.425 175.918 221.214V156.527C175.918 155.316 176.898 154.334 178.107 154.334H191.461C192.67 154.334 193.65 155.316 193.65 156.527V174.836C193.65 176.047 194.63 177.029 195.839 177.029H219.262C229.376 177.029 236.895 179.068 241.821 183.147C246.812 187.226 249.307 192.916 249.307 200.218C249.307 207.52 246.812 213.21 241.821 217.288C236.895 221.367 229.376 223.406 219.262 223.406H178.107ZM218.769 209.098C222.71 209.098 225.665 208.309 227.635 206.73C229.605 205.151 230.591 202.981 230.591 200.218C230.591 197.455 229.605 195.284 227.635 193.705C225.665 192.126 222.71 191.337 218.769 191.337H195.839C194.63 191.337 193.65 192.319 193.65 193.53V206.906C193.65 208.117 194.63 209.098 195.839 209.098H218.769Z" fill="#3F6CA3"/>
<path d="M87.7334 220.251C88.4468 221.708 87.3837 223.406 85.7586 223.406H70.9825C70.1356 223.406 69.364 222.921 68.9991 222.158L62.8745 209.36C62.5096 208.597 61.738 208.112 60.891 208.112H27.0682C26.2213 208.112 25.4497 208.597 25.0848 209.36L18.9602 222.158C18.5953 222.921 17.8237 223.406 16.9767 223.406H2.20068C0.575601 223.406 -0.487519 221.708 0.225859 220.251L31.9041 155.564C32.2727 154.811 33.0391 154.334 33.8789 154.334H54.0804C54.9202 154.334 55.6865 154.811 56.0552 155.564L87.7334 220.251ZM43.9796 170.813C43.7378 170.813 43.5175 170.951 43.4128 171.169L32.1383 194.609C31.4381 196.065 32.5015 197.751 34.1198 197.751H53.8394C55.4577 197.751 56.5211 196.065 55.821 194.609L44.5464 171.169C44.4418 170.951 44.2214 170.813 43.9796 170.813V170.813Z" fill="#3F6CA3"/>
<path d="M178.995 57.6458C169.5 44.9996 158 36.4996 139 27.4996C136.538 26.4754 134.766 29.3506 136.905 30.9451C173.729 58.392 177.609 90.3278 178.68 110.704C178.741 111.87 179.7 112.781 180.865 112.781H183.705C184.859 112.781 185.814 111.866 185.906 110.712C189.554 64.991 218.227 33.1281 243 15.4995C245.946 12.7305 242.981 9.89768 240.5 10.9997C214.195 22.6809 196.108 40.1794 183.194 58.1454C182 59.4996 180.156 59.1911 178.995 57.6458Z" fill="#3F6CA3"/>
<path d="M165.469 154.333C166.682 154.333 167.665 155.315 167.666 156.526V221.213C167.666 222.424 166.682 223.406 165.469 223.406H152.075C150.862 223.406 149.878 222.424 149.878 221.213V171.821C149.878 170.61 148.896 169.628 147.683 169.628H124.444C123.491 169.628 122.671 170.299 122.483 171.233L110.305 221.764C110.085 222.777 109.184 223.5 108.143 223.5H94.4576C93.0704 223.5 92.0257 222.243 92.2847 220.886L106.804 156.538C106.883 156.124 107.067 155.769 107.319 155.487C107.691 154.799 108.418 154.333 109.252 154.333H165.469Z" fill="#3F6CA3"/>
<path d="M181.045 0C184.394 0 187.502 1.0345 190.066 2.8013C190.322 2.97743 190.367 3.33292 190.179 3.58018C186.353 8.61986 185.52 13.8544 186.203 18.4514C186.789 22.3943 188.479 25.8112 190.222 28.2442C190.399 28.4919 190.351 28.8383 190.101 29.0118C187.53 30.7934 184.41 31.838 181.045 31.838C177.292 31.838 173.843 30.5382 171.121 28.3654C170.891 28.1816 170.86 27.8469 171.037 27.6114C174.8 22.6015 175.62 17.4053 174.941 12.8377C174.417 9.31011 173.009 6.20321 171.471 3.84523C171.313 3.60341 171.361 3.27922 171.593 3.10761C174.236 1.15434 177.506 0 181.045 0ZM193.253 6.81484C193.461 6.51846 193.895 6.51649 194.103 6.81325C195.906 9.39354 196.964 12.5325 196.964 15.919C196.964 19.2786 195.922 22.3941 194.145 24.9626C193.934 25.2677 193.488 25.2592 193.287 24.9472C192.079 23.0705 190.96 20.5869 190.546 17.806C190.052 14.481 190.55 10.6681 193.253 6.81484ZM167.61 7.37558C167.821 7.04389 168.3 7.06042 168.491 7.40429C169.441 9.11577 170.259 11.1989 170.598 13.4831C171.073 16.6767 170.631 20.32 168.2 24.0173C167.989 24.3383 167.522 24.329 167.327 23.9982C165.929 21.6298 165.126 18.8684 165.126 15.919C165.126 12.7752 166.037 9.84397 167.61 7.37558Z" fill="#A4DB00"/>
<path d="M397.393 244.711C399.167 244.711 400.515 245.112 401.435 245.914C402.355 246.702 402.815 247.78 402.815 249.147C402.815 250.514 402.355 251.599 401.435 252.401C400.515 253.189 399.167 253.584 397.393 253.584H391.576V258.513H389.604V244.711H397.393ZM397.393 251.711C398.484 251.711 399.312 251.48 399.877 251.02C400.455 250.547 400.745 249.923 400.745 249.147C400.745 248.372 400.455 247.754 399.877 247.294C399.312 246.821 398.484 246.584 397.393 246.584H391.576V251.711H397.393Z" fill="#3F6CA3"/>
<path d="M365.842 244.711H378.855V246.584H373.334V258.513H371.363V246.584H365.842V244.711Z" fill="#3F6CA3"/>
<path d="M353.132 250.626V244.711H355.104V258.513H353.132V252.499H343.668V258.513H341.696V244.711H343.668V250.626H353.132Z" fill="#3F6CA3"/>
<path d="M320.397 252.499V256.64H330.255V258.513H318.425V244.711H329.861V246.584H320.397V250.626H329.072V252.499H320.397Z" fill="#3F6CA3"/>
<path d="M307.48 262.259H305.508V258.513H292.594V244.711H294.565V256.64H303.635V244.711H305.607V256.64H307.48V262.259Z" fill="#3F6CA3"/>
<path d="M255.823 258.514H252.964V244.712H254.936V256.443H255.034L263.118 244.712H265.977V258.514H264.005V246.782H263.907L255.823 258.514ZM259.471 243.332C258.182 243.332 257.203 243.055 256.533 242.503C255.862 241.938 255.527 241.196 255.527 240.275H257.302C257.302 241.261 258.025 241.754 259.471 241.754C260.916 241.754 261.639 241.261 261.639 240.275H263.414C263.414 241.196 263.079 241.938 262.408 242.503C261.738 243.055 260.759 243.332 259.471 243.332Z" fill="#3F6CA3"/>
<path d="M224.765 258.513V244.711H226.736V249.837H231.961C233.789 249.837 235.149 250.219 236.043 250.981C236.937 251.743 237.384 252.808 237.384 254.175C237.384 255.542 236.937 256.607 236.043 257.369C235.149 258.132 233.789 258.513 231.961 258.513H224.765ZM240.933 258.513H238.961V244.711H240.933V258.513ZM231.961 256.64C233.105 256.64 233.946 256.423 234.485 255.989C235.037 255.555 235.313 254.951 235.313 254.175C235.313 253.4 235.037 252.795 234.485 252.361C233.946 251.927 233.105 251.711 231.961 251.711H226.736V256.64H231.961Z" fill="#3F6CA3"/>
<path d="M210.773 250.626V244.711H212.745V258.513H210.773V252.499H201.309V258.513H199.337V244.711H201.309V250.626H210.773Z" fill="#3F6CA3"/>
<path d="M181.685 258.711C179.95 258.711 178.452 258.409 177.19 257.804C175.928 257.186 174.962 256.338 174.292 255.26C173.634 254.183 173.306 252.967 173.306 251.613C173.306 250.246 173.641 249.03 174.311 247.965C174.995 246.887 175.994 246.046 177.308 245.441C178.636 244.824 180.226 244.515 182.08 244.515C183.237 244.515 184.321 244.666 185.333 244.968C186.358 245.27 187.147 245.612 187.699 245.993V248.064C187.173 247.617 186.398 247.209 185.373 246.841C184.36 246.473 183.263 246.289 182.08 246.289C180.673 246.289 179.464 246.526 178.452 246.999C177.453 247.459 176.69 248.097 176.165 248.912C175.639 249.713 175.376 250.614 175.376 251.613C175.376 252.599 175.626 253.499 176.125 254.314C176.638 255.129 177.374 255.773 178.334 256.246C179.293 256.706 180.41 256.936 181.685 256.936C182.79 256.936 183.828 256.798 184.801 256.522C185.787 256.233 186.556 255.918 187.108 255.576V257.587C186.569 257.876 185.806 258.139 184.82 258.376C183.835 258.599 182.79 258.711 181.685 258.711Z" fill="#3F6CA3"/>
<path d="M151.419 258.513H148.56V244.711H150.531V256.443H150.63L158.714 244.711H161.573V258.513H159.601V246.781H159.503L151.419 258.513Z" fill="#3F6CA3"/>
<path d="M134.568 250.626V244.711H136.539V258.513H134.568V252.499H125.104V258.513H123.132V244.711H125.104V250.626H134.568Z" fill="#3F6CA3"/>
<path d="M109.14 250.626V244.711H111.112V258.513H109.14V252.499H99.6758V258.513H97.7041V244.711H99.6758V250.626H109.14Z" fill="#3F6CA3"/>
<path d="M76.4053 252.499V256.64H86.2638V258.513H74.4336V244.711H85.8695V246.584H76.4053V250.626H85.0808V252.499H76.4053Z" fill="#3F6CA3"/>
<path d="M50.6709 244.711H63.6842V246.584H58.1634V258.513H56.1917V246.584H50.6709V244.711Z" fill="#3F6CA3"/>
<path d="M355.285 2.06033C357.887 1.46108 359.088 5.49692 356.659 6.60818C309.28 28.2815 259.036 68.4316 253.729 138.074C253.641 139.226 252.688 140.144 251.535 140.144H246.334C245.171 140.144 244.216 139.253 244.126 138.091C242.752 120.382 233.686 90.5205 212.84 61.2834C212.342 60.5849 212.333 59.6426 212.837 58.9486C215.712 54.9925 218.906 51.0815 223.144 47.2065C223.904 46.512 225.07 46.5399 225.81 47.2557C233.042 54.2542 238.916 61.1017 245.881 71.1814C246.725 72.7554 249.015 72.7975 249.898 71.2449C274 38 303.5 17.5 355.285 2.06033Z" fill="#3F6CA3"/>
</svg>
